<mxfile host="app.diagrams.net" agent="Mozilla/5.0 (Windows NT 10.0; Win64; x64) AppleWebKit/537.36 (KHTML, like Gecko) Chrome/128.0.0.0 Safari/537.36 OPR/114.0.0.0" version="25.0.3">
  <diagram name="Page-1" id="2YBvvXClWsGukQMizWep">
    <mxGraphModel grid="1" page="1" gridSize="10" guides="1" tooltips="1" connect="1" arrows="1" fold="1" pageScale="1" pageWidth="850" pageHeight="1100" math="0" shadow="0">
      <root>
        <mxCell id="0" />
        <mxCell id="1" parent="0" />
        <mxCell id="IcOrUgIfYv0PD_aXXtW--33" value="ESP" style="shape=umlLifeline;perimeter=lifelinePerimeter;whiteSpace=wrap;html=1;container=1;dropTarget=0;collapsible=0;recursiveResize=0;outlineConnect=0;portConstraint=eastwest;newEdgeStyle={&quot;curved&quot;:0,&quot;rounded&quot;:0};" vertex="1" parent="1">
          <mxGeometry x="370" y="60" width="100" height="730" as="geometry" />
        </mxCell>
        <mxCell id="IcOrUgIfYv0PD_aXXtW--34" value="HTU21" style="shape=umlLifeline;perimeter=lifelinePerimeter;whiteSpace=wrap;html=1;container=1;dropTarget=0;collapsible=0;recursiveResize=0;outlineConnect=0;portConstraint=eastwest;newEdgeStyle={&quot;curved&quot;:0,&quot;rounded&quot;:0};" vertex="1" parent="1">
          <mxGeometry x="530" y="60" width="100" height="730" as="geometry" />
        </mxCell>
        <mxCell id="IcOrUgIfYv0PD_aXXtW--35" value="" style="html=1;points=[[0,0,0,0,5],[0,1,0,0,-5],[1,0,0,0,5],[1,1,0,0,-5]];perimeter=orthogonalPerimeter;outlineConnect=0;targetShapes=umlLifeline;portConstraint=eastwest;newEdgeStyle={&quot;curved&quot;:0,&quot;rounded&quot;:0};" vertex="1" parent="IcOrUgIfYv0PD_aXXtW--34">
          <mxGeometry x="45" y="80" width="10" height="40" as="geometry" />
        </mxCell>
        <mxCell id="IcOrUgIfYv0PD_aXXtW--36" value="Sequence diagam - use case 2" style="shape=umlFrame;whiteSpace=wrap;html=1;pointerEvents=0;width=211;height=15;" vertex="1" parent="1">
          <mxGeometry x="19" y="20" width="791" height="770" as="geometry" />
        </mxCell>
        <mxCell id="IcOrUgIfYv0PD_aXXtW--37" value="HTTP-server" style="shape=umlLifeline;perimeter=lifelinePerimeter;whiteSpace=wrap;html=1;container=1;dropTarget=0;collapsible=0;recursiveResize=0;outlineConnect=0;portConstraint=eastwest;newEdgeStyle={&quot;curved&quot;:0,&quot;rounded&quot;:0};" vertex="1" parent="1">
          <mxGeometry x="210" y="60" width="100" height="730" as="geometry" />
        </mxCell>
        <mxCell id="IcOrUgIfYv0PD_aXXtW--38" value="" style="html=1;points=[[0,0,0,0,5],[0,1,0,0,-5],[1,0,0,0,5],[1,1,0,0,-5]];perimeter=orthogonalPerimeter;outlineConnect=0;targetShapes=umlLifeline;portConstraint=eastwest;newEdgeStyle={&quot;curved&quot;:0,&quot;rounded&quot;:0};" vertex="1" parent="IcOrUgIfYv0PD_aXXtW--37">
          <mxGeometry x="45" y="520" width="10" height="160" as="geometry" />
        </mxCell>
        <mxCell id="IcOrUgIfYv0PD_aXXtW--39" value="" style="html=1;points=[[0,0,0,0,5],[0,1,0,0,-5],[1,0,0,0,5],[1,1,0,0,-5]];perimeter=orthogonalPerimeter;outlineConnect=0;targetShapes=umlLifeline;portConstraint=eastwest;newEdgeStyle={&quot;curved&quot;:0,&quot;rounded&quot;:0};" vertex="1" parent="IcOrUgIfYv0PD_aXXtW--37">
          <mxGeometry x="50" y="605" width="10" height="40" as="geometry" />
        </mxCell>
        <mxCell id="IcOrUgIfYv0PD_aXXtW--40" value="&lt;font style=&quot;font-size: 10px;&quot;&gt;gem midlertidigt data&lt;/font&gt;" style="html=1;align=left;spacingLeft=2;endArrow=block;rounded=0;edgeStyle=orthogonalEdgeStyle;curved=0;rounded=0;" edge="1" parent="IcOrUgIfYv0PD_aXXtW--37" target="IcOrUgIfYv0PD_aXXtW--39">
          <mxGeometry relative="1" as="geometry">
            <mxPoint x="55" y="585" as="sourcePoint" />
            <Array as="points">
              <mxPoint x="85" y="615" />
            </Array>
          </mxGeometry>
        </mxCell>
        <mxCell id="IcOrUgIfYv0PD_aXXtW--41" value="&lt;font style=&quot;font-size: 10px;&quot;&gt;void handleHumidity/&lt;/font&gt;&lt;div&gt;&lt;font style=&quot;font-size: 10px;&quot;&gt;void handleTemperture&lt;/font&gt;&lt;/div&gt;" style="html=1;verticalAlign=bottom;endArrow=block;curved=0;rounded=0;" edge="1" parent="IcOrUgIfYv0PD_aXXtW--37">
          <mxGeometry x="-0.0035" relative="1" as="geometry">
            <mxPoint x="55" y="520.0000000000001" as="sourcePoint" />
            <mxPoint x="205" y="520.0000000000001" as="targetPoint" />
            <mxPoint as="offset" />
          </mxGeometry>
        </mxCell>
        <mxCell id="IcOrUgIfYv0PD_aXXtW--42" value="&lt;font style=&quot;font-size: 10px;&quot;&gt;void handleHumidity/&lt;/font&gt;&lt;div&gt;&lt;font style=&quot;font-size: 10px;&quot;&gt;void handleTemperture&lt;/font&gt;&lt;/div&gt;" style="html=1;verticalAlign=bottom;endArrow=open;dashed=1;endSize=8;curved=0;rounded=0;" edge="1" parent="IcOrUgIfYv0PD_aXXtW--37">
          <mxGeometry relative="1" as="geometry">
            <mxPoint x="55" y="559.0000000000001" as="targetPoint" />
            <mxPoint x="205" y="559.0000000000001" as="sourcePoint" />
          </mxGeometry>
        </mxCell>
        <mxCell id="IcOrUgIfYv0PD_aXXtW--43" value="Lyssensor" style="shape=umlLifeline;perimeter=lifelinePerimeter;whiteSpace=wrap;html=1;container=1;dropTarget=0;collapsible=0;recursiveResize=0;outlineConnect=0;portConstraint=eastwest;newEdgeStyle={&quot;curved&quot;:0,&quot;rounded&quot;:0};" vertex="1" parent="1">
          <mxGeometry x="687" y="60" width="100" height="730" as="geometry" />
        </mxCell>
        <mxCell id="IcOrUgIfYv0PD_aXXtW--44" value="" style="html=1;points=[[0,0,0,0,5],[0,1,0,0,-5],[1,0,0,0,5],[1,1,0,0,-5]];perimeter=orthogonalPerimeter;outlineConnect=0;targetShapes=umlLifeline;portConstraint=eastwest;newEdgeStyle={&quot;curved&quot;:0,&quot;rounded&quot;:0};" vertex="1" parent="IcOrUgIfYv0PD_aXXtW--43">
          <mxGeometry x="45" y="140" width="10" height="20" as="geometry" />
        </mxCell>
        <mxCell id="IcOrUgIfYv0PD_aXXtW--45" value="" style="html=1;points=[[0,0,0,0,5],[0,1,0,0,-5],[1,0,0,0,5],[1,1,0,0,-5]];perimeter=orthogonalPerimeter;outlineConnect=0;targetShapes=umlLifeline;portConstraint=eastwest;newEdgeStyle={&quot;curved&quot;:0,&quot;rounded&quot;:0};" vertex="1" parent="IcOrUgIfYv0PD_aXXtW--43">
          <mxGeometry x="45" y="140" width="10" height="40" as="geometry" />
        </mxCell>
        <mxCell id="IcOrUgIfYv0PD_aXXtW--46" value="&lt;font style=&quot;font-size: 10px;&quot;&gt;void Sunsearch();&lt;/font&gt;" style="html=1;verticalAlign=bottom;endArrow=open;dashed=1;endSize=8;curved=0;rounded=0;exitX=0;exitY=1;exitDx=0;exitDy=-5;" edge="1" parent="IcOrUgIfYv0PD_aXXtW--43" target="IcOrUgIfYv0PD_aXXtW--47">
          <mxGeometry relative="1" as="geometry">
            <mxPoint x="-105" y="170" as="targetPoint" />
            <mxPoint x="45" y="170" as="sourcePoint" />
          </mxGeometry>
        </mxCell>
        <mxCell id="IcOrUgIfYv0PD_aXXtW--47" value="" style="html=1;points=[[0,0,0,0,5],[0,1,0,0,-5],[1,0,0,0,5],[1,1,0,0,-5]];perimeter=orthogonalPerimeter;outlineConnect=0;targetShapes=umlLifeline;portConstraint=eastwest;newEdgeStyle={&quot;curved&quot;:0,&quot;rounded&quot;:0};" vertex="1" parent="1">
          <mxGeometry x="415" y="140" width="10" height="490" as="geometry" />
        </mxCell>
        <mxCell id="IcOrUgIfYv0PD_aXXtW--48" value="&lt;span style=&quot;font-size: 10px;&quot;&gt;void readSensorsTask();&amp;nbsp;&amp;nbsp;&lt;/span&gt;" style="html=1;verticalAlign=bottom;endArrow=block;curved=0;rounded=0;entryX=0;entryY=0;entryDx=0;entryDy=5;" edge="1" parent="1" source="IcOrUgIfYv0PD_aXXtW--47" target="IcOrUgIfYv0PD_aXXtW--35">
          <mxGeometry x="0.002" relative="1" as="geometry">
            <mxPoint x="465" y="155" as="sourcePoint" />
            <mxPoint as="offset" />
          </mxGeometry>
        </mxCell>
        <mxCell id="IcOrUgIfYv0PD_aXXtW--49" value="&lt;font style=&quot;font-size: 10px;&quot;&gt;void readSensorsTask();&amp;nbsp;&amp;nbsp;&lt;/font&gt;" style="html=1;verticalAlign=bottom;endArrow=open;dashed=1;endSize=8;curved=0;rounded=0;exitX=0;exitY=1;exitDx=0;exitDy=-5;" edge="1" parent="1">
          <mxGeometry relative="1" as="geometry">
            <mxPoint x="425" y="170" as="targetPoint" />
            <mxPoint x="575" y="170" as="sourcePoint" />
          </mxGeometry>
        </mxCell>
        <mxCell id="IcOrUgIfYv0PD_aXXtW--50" value="" style="html=1;points=[[0,0,0,0,5],[0,1,0,0,-5],[1,0,0,0,5],[1,1,0,0,-5]];perimeter=orthogonalPerimeter;outlineConnect=0;targetShapes=umlLifeline;portConstraint=eastwest;newEdgeStyle={&quot;curved&quot;:0,&quot;rounded&quot;:0};" vertex="1" parent="1">
          <mxGeometry x="420" y="280" width="10" height="40" as="geometry" />
        </mxCell>
        <mxCell id="IcOrUgIfYv0PD_aXXtW--51" value="&lt;span style=&quot;font-size: 10px;&quot;&gt;void sunsearch();&lt;/span&gt;" style="html=1;align=left;spacingLeft=2;endArrow=block;rounded=0;edgeStyle=orthogonalEdgeStyle;curved=0;rounded=0;" edge="1" parent="1" target="IcOrUgIfYv0PD_aXXtW--50">
          <mxGeometry relative="1" as="geometry">
            <mxPoint x="425" y="260" as="sourcePoint" />
            <Array as="points">
              <mxPoint x="455" y="290" />
            </Array>
          </mxGeometry>
        </mxCell>
        <mxCell id="IcOrUgIfYv0PD_aXXtW--52" value="" style="html=1;points=[[0,0,0,0,5],[0,1,0,0,-5],[1,0,0,0,5],[1,1,0,0,-5]];perimeter=orthogonalPerimeter;outlineConnect=0;targetShapes=umlLifeline;portConstraint=eastwest;newEdgeStyle={&quot;curved&quot;:0,&quot;rounded&quot;:0};" vertex="1" parent="1">
          <mxGeometry x="420" y="440" width="10" height="40" as="geometry" />
        </mxCell>
        <mxCell id="IcOrUgIfYv0PD_aXXtW--53" value="&lt;span style=&quot;font-size: 10px;&quot;&gt;float readtemperature(); /&lt;/span&gt;&lt;div&gt;&lt;span style=&quot;font-size: 10px;&quot;&gt;&amp;nbsp;float readHumidity();&lt;/span&gt;&lt;/div&gt;" style="html=1;align=left;spacingLeft=2;endArrow=block;rounded=0;edgeStyle=orthogonalEdgeStyle;curved=0;rounded=0;" edge="1" parent="1" target="IcOrUgIfYv0PD_aXXtW--52">
          <mxGeometry x="-0.0105" relative="1" as="geometry">
            <mxPoint x="425" y="420" as="sourcePoint" />
            <Array as="points">
              <mxPoint x="455" y="450" />
            </Array>
            <mxPoint as="offset" />
          </mxGeometry>
        </mxCell>
        <mxCell id="IcOrUgIfYv0PD_aXXtW--54" value="" style="html=1;points=[[0,0,0,0,5],[0,1,0,0,-5],[1,0,0,0,5],[1,1,0,0,-5]];perimeter=orthogonalPerimeter;outlineConnect=0;targetShapes=umlLifeline;portConstraint=eastwest;newEdgeStyle={&quot;curved&quot;:0,&quot;rounded&quot;:0};" vertex="1" parent="1">
          <mxGeometry x="420" y="520" width="10" height="40" as="geometry" />
        </mxCell>
        <mxCell id="IcOrUgIfYv0PD_aXXtW--55" value="&lt;span style=&quot;font-size: 10px;&quot;&gt;void showTempAndHumidity();&lt;/span&gt;" style="html=1;align=left;spacingLeft=2;endArrow=block;rounded=0;edgeStyle=orthogonalEdgeStyle;curved=0;rounded=0;" edge="1" parent="1" target="IcOrUgIfYv0PD_aXXtW--54">
          <mxGeometry x="-0.0105" relative="1" as="geometry">
            <mxPoint x="425" y="500" as="sourcePoint" />
            <Array as="points">
              <mxPoint x="455" y="530" />
            </Array>
            <mxPoint as="offset" />
          </mxGeometry>
        </mxCell>
        <mxCell id="IcOrUgIfYv0PD_aXXtW--56" value="&lt;span style=&quot;font-size: 10px;&quot;&gt;void Sunsearch();&lt;/span&gt;" style="html=1;verticalAlign=bottom;endArrow=block;curved=0;rounded=0;entryX=0;entryY=0;entryDx=0;entryDy=5;" edge="1" parent="1" source="IcOrUgIfYv0PD_aXXtW--47" target="IcOrUgIfYv0PD_aXXtW--45">
          <mxGeometry relative="1" as="geometry">
            <mxPoint x="582" y="205" as="sourcePoint" />
          </mxGeometry>
        </mxCell>
        <mxCell id="IcOrUgIfYv0PD_aXXtW--57" value="Webclient" style="shape=umlLifeline;perimeter=lifelinePerimeter;whiteSpace=wrap;html=1;container=1;dropTarget=0;collapsible=0;recursiveResize=0;outlineConnect=0;portConstraint=eastwest;newEdgeStyle={&quot;curved&quot;:0,&quot;rounded&quot;:0};" vertex="1" parent="1">
          <mxGeometry x="50" y="60" width="100" height="730" as="geometry" />
        </mxCell>
        <mxCell id="IcOrUgIfYv0PD_aXXtW--58" value="" style="html=1;points=[[0,0,0,0,5],[0,1,0,0,-5],[1,0,0,0,5],[1,1,0,0,-5]];perimeter=orthogonalPerimeter;outlineConnect=0;targetShapes=umlLifeline;portConstraint=eastwest;newEdgeStyle={&quot;curved&quot;:0,&quot;rounded&quot;:0};" vertex="1" parent="IcOrUgIfYv0PD_aXXtW--57">
          <mxGeometry x="45" y="660" width="10" height="20" as="geometry" />
        </mxCell>
        <mxCell id="IcOrUgIfYv0PD_aXXtW--59" value="&lt;span style=&quot;font-size: 10px;&quot;&gt;HTTP_GET&lt;/span&gt;" style="html=1;verticalAlign=bottom;endArrow=block;curved=0;rounded=0;entryX=1;entryY=1;entryDx=0;entryDy=-5;entryPerimeter=0;" edge="1" parent="1">
          <mxGeometry x="-0.0035" relative="1" as="geometry">
            <mxPoint x="255" y="730" as="sourcePoint" />
            <mxPoint x="105" y="730" as="targetPoint" />
            <mxPoint as="offset" />
          </mxGeometry>
        </mxCell>
        <mxCell id="IcOrUgIfYv0PD_aXXtW--60" value="Loop" style="shape=umlFrame;whiteSpace=wrap;html=1;pointerEvents=0;recursiveResize=0;container=1;collapsible=0;width=110;height=15;" vertex="1" parent="1">
          <mxGeometry x="310" y="110" width="470" height="300" as="geometry" />
        </mxCell>
        <mxCell id="IcOrUgIfYv0PD_aXXtW--61" value="EXT 1" style="shape=umlFrame;whiteSpace=wrap;html=1;pointerEvents=0;recursiveResize=0;container=1;collapsible=0;width=110;height=15;" vertex="1" parent="IcOrUgIfYv0PD_aXXtW--60">
          <mxGeometry y="220" width="500" height="80" as="geometry" />
        </mxCell>
        <mxCell id="IcOrUgIfYv0PD_aXXtW--62" value="" style="html=1;points=[[0,0,0,0,5],[0,1,0,0,-5],[1,0,0,0,5],[1,1,0,0,-5]];perimeter=orthogonalPerimeter;outlineConnect=0;targetShapes=umlLifeline;portConstraint=eastwest;newEdgeStyle={&quot;curved&quot;:0,&quot;rounded&quot;:0};" vertex="1" parent="IcOrUgIfYv0PD_aXXtW--61">
          <mxGeometry x="140" y="30" width="10" height="40" as="geometry" />
        </mxCell>
        <mxCell id="IcOrUgIfYv0PD_aXXtW--63" value="" style="html=1;align=left;spacingLeft=2;endArrow=block;rounded=0;edgeStyle=orthogonalEdgeStyle;curved=0;rounded=0;" edge="1" parent="IcOrUgIfYv0PD_aXXtW--61" target="IcOrUgIfYv0PD_aXXtW--62">
          <mxGeometry relative="1" as="geometry">
            <mxPoint x="145" y="10" as="sourcePoint" />
            <Array as="points">
              <mxPoint x="175" y="40" />
            </Array>
          </mxGeometry>
        </mxCell>
        <mxCell id="IcOrUgIfYv0PD_aXXtW--64" value="&lt;span style=&quot;font-size: 10px;&quot;&gt;void Sunsearch();&lt;/span&gt;" style="text;html=1;align=left;verticalAlign=middle;resizable=0;points=[];autosize=1;strokeColor=none;fillColor=none;" vertex="1" parent="IcOrUgIfYv0PD_aXXtW--61">
          <mxGeometry x="180" y="15" width="100" height="30" as="geometry" />
        </mxCell>
      </root>
    </mxGraphModel>
  </diagram>
</mxfile>
